<mxfile host="app.diagrams.net" modified="2023-05-08T02:52:25.495Z" agent="Mozilla/5.0 (Windows NT 10.0; Win64; x64) AppleWebKit/537.36 (KHTML, like Gecko) Chrome/112.0.0.0 Safari/537.36" version="21.2.2" etag="Me09aUceiPchkJwtyiVV" type="github">
  <diagram name="Page-1" id="_5ZixSLjUwJ5GQmUJJmJ">
    <mxGraphModel>
      <root>
        <mxCell id="0" />
        <mxCell id="1" parent="0" />
      </root>
    </mxGraphModel>
  </diagram>
</mxfile>
